<mxfile host="app.diagrams.net" modified="2020-09-29T09:08:33.101Z" agent="5.0 (X11)" etag="478g98fB6527Y1zwcKZa" version="13.7.6" type="github">
  <diagram id="ap1NN5vQjw3dxnCP_roy" name="Page-1">
    <mxGraphModel dx="920" dy="855" grid="1" gridSize="10" guides="1" tooltips="1" connect="1" arrows="1" fold="1" page="1" pageScale="1" pageWidth="827" pageHeight="583" math="0" shadow="0">
      <root>
        <mxCell id="0" />
        <mxCell id="1" parent="0" />
        <mxCell id="o5PamqobD-m2SOwDLmNt-1" value="&lt;h1 style=&quot;font-size: 24px&quot;&gt;&lt;font style=&quot;font-size: 24px&quot;&gt;Employee&lt;/font&gt;&lt;/h1&gt;&lt;p style=&quot;font-size: 18px&quot;&gt;&lt;font style=&quot;font-size: 18px&quot;&gt;This ER diagram for relation employee-skill-department&lt;br&gt;&lt;/font&gt;&lt;/p&gt;" style="text;html=1;strokeColor=none;fillColor=none;spacing=5;spacingTop=-20;whiteSpace=wrap;overflow=hidden;rounded=0;sketch=0;" vertex="1" parent="1">
          <mxGeometry x="150" y="27" width="190" height="120" as="geometry" />
        </mxCell>
        <mxCell id="o5PamqobD-m2SOwDLmNt-237" style="rounded=0;orthogonalLoop=1;jettySize=auto;html=1;entryX=0;entryY=0.5;entryDx=0;entryDy=0;edgeStyle=orthogonalEdgeStyle;shadow=0;endArrow=ERmany;endFill=0;startArrow=ERmandOne;startFill=0;endSize=10;startSize=10;sketch=0;" edge="1" parent="1" source="o5PamqobD-m2SOwDLmNt-176" target="o5PamqobD-m2SOwDLmNt-183">
          <mxGeometry relative="1" as="geometry" />
        </mxCell>
        <mxCell id="o5PamqobD-m2SOwDLmNt-238" style="edgeStyle=orthogonalEdgeStyle;rounded=0;orthogonalLoop=1;jettySize=auto;html=1;entryX=0;entryY=0.5;entryDx=0;entryDy=0;endArrow=ERmany;endFill=0;startArrow=ERmandOne;startFill=0;endSize=10;startSize=10;sketch=0;" edge="1" parent="1" source="o5PamqobD-m2SOwDLmNt-225" target="o5PamqobD-m2SOwDLmNt-215">
          <mxGeometry relative="1" as="geometry" />
        </mxCell>
        <mxCell id="o5PamqobD-m2SOwDLmNt-239" style="edgeStyle=orthogonalEdgeStyle;rounded=0;orthogonalLoop=1;jettySize=auto;html=1;entryX=1;entryY=0.5;entryDx=0;entryDy=0;endArrow=ERmandOne;endFill=0;startArrow=ERmany;startFill=0;endSize=10;startSize=10;sketch=0;" edge="1" parent="1" source="o5PamqobD-m2SOwDLmNt-212" target="o5PamqobD-m2SOwDLmNt-164">
          <mxGeometry relative="1" as="geometry" />
        </mxCell>
        <mxCell id="o5PamqobD-m2SOwDLmNt-211" value="EmployeeSkill" style="shape=table;startSize=30;container=1;collapsible=1;childLayout=tableLayout;fixedRows=1;rowLines=0;fontStyle=1;align=center;resizeLast=1;fillColor=#e1d5e7;strokeColor=#9673a6;sketch=0;rounded=0;" vertex="1" parent="1">
          <mxGeometry x="510" y="187" width="180" height="130" as="geometry" />
        </mxCell>
        <mxCell id="o5PamqobD-m2SOwDLmNt-212" value="" style="shape=partialRectangle;collapsible=0;dropTarget=0;pointerEvents=0;fillColor=none;top=0;left=0;bottom=0;right=0;points=[[0,0.5],[1,0.5]];portConstraint=eastwest;sketch=1;" vertex="1" parent="o5PamqobD-m2SOwDLmNt-211">
          <mxGeometry y="30" width="180" height="30" as="geometry" />
        </mxCell>
        <mxCell id="o5PamqobD-m2SOwDLmNt-213" value="PK,FK1" style="shape=partialRectangle;connectable=0;fillColor=none;top=0;left=0;bottom=0;right=0;fontStyle=1;overflow=hidden;sketch=0;" vertex="1" parent="o5PamqobD-m2SOwDLmNt-212">
          <mxGeometry width="60" height="30" as="geometry" />
        </mxCell>
        <mxCell id="o5PamqobD-m2SOwDLmNt-214" value="employid" style="shape=partialRectangle;connectable=0;fillColor=none;top=0;left=0;bottom=0;right=0;align=left;spacingLeft=6;fontStyle=5;overflow=hidden;sketch=1;" vertex="1" parent="o5PamqobD-m2SOwDLmNt-212">
          <mxGeometry x="60" width="120" height="30" as="geometry" />
        </mxCell>
        <mxCell id="o5PamqobD-m2SOwDLmNt-215" value="" style="shape=partialRectangle;collapsible=0;dropTarget=0;pointerEvents=0;fillColor=none;top=0;left=0;bottom=1;right=0;points=[[0,0.5],[1,0.5]];portConstraint=eastwest;sketch=1;" vertex="1" parent="o5PamqobD-m2SOwDLmNt-211">
          <mxGeometry y="60" width="180" height="30" as="geometry" />
        </mxCell>
        <mxCell id="o5PamqobD-m2SOwDLmNt-216" value="PK,FK2" style="shape=partialRectangle;connectable=0;fillColor=none;top=0;left=0;bottom=0;right=0;fontStyle=1;overflow=hidden;sketch=0;" vertex="1" parent="o5PamqobD-m2SOwDLmNt-215">
          <mxGeometry width="60" height="30" as="geometry" />
        </mxCell>
        <mxCell id="o5PamqobD-m2SOwDLmNt-217" value="skillid" style="shape=partialRectangle;connectable=0;fillColor=none;top=0;left=0;bottom=0;right=0;align=left;spacingLeft=6;fontStyle=5;overflow=hidden;sketch=1;" vertex="1" parent="o5PamqobD-m2SOwDLmNt-215">
          <mxGeometry x="60" width="120" height="30" as="geometry" />
        </mxCell>
        <mxCell id="o5PamqobD-m2SOwDLmNt-218" value="" style="shape=partialRectangle;collapsible=0;dropTarget=0;pointerEvents=0;fillColor=none;top=0;left=0;bottom=0;right=0;points=[[0,0.5],[1,0.5]];portConstraint=eastwest;sketch=1;" vertex="1" parent="o5PamqobD-m2SOwDLmNt-211">
          <mxGeometry y="90" width="180" height="30" as="geometry" />
        </mxCell>
        <mxCell id="o5PamqobD-m2SOwDLmNt-219" value="" style="shape=partialRectangle;connectable=0;fillColor=none;top=0;left=0;bottom=0;right=0;editable=1;overflow=hidden;sketch=0;" vertex="1" parent="o5PamqobD-m2SOwDLmNt-218">
          <mxGeometry width="60" height="30" as="geometry" />
        </mxCell>
        <mxCell id="o5PamqobD-m2SOwDLmNt-220" value="skilllevel" style="shape=partialRectangle;connectable=0;fillColor=none;top=0;left=0;bottom=0;right=0;align=left;spacingLeft=6;overflow=hidden;sketch=1;" vertex="1" parent="o5PamqobD-m2SOwDLmNt-218">
          <mxGeometry x="60" width="120" height="30" as="geometry" />
        </mxCell>
        <mxCell id="o5PamqobD-m2SOwDLmNt-224" value="Skill" style="shape=table;startSize=30;container=1;collapsible=1;childLayout=tableLayout;fixedRows=1;rowLines=0;fontStyle=1;align=center;resizeLast=1;fillColor=#e1d5e7;strokeColor=#9673a6;sketch=0;rounded=0;" vertex="1" parent="1">
          <mxGeometry x="510" y="347" width="180" height="100" as="geometry" />
        </mxCell>
        <mxCell id="o5PamqobD-m2SOwDLmNt-225" value="" style="shape=partialRectangle;collapsible=0;dropTarget=0;pointerEvents=0;fillColor=none;top=0;left=0;bottom=1;right=0;points=[[0,0.5],[1,0.5]];portConstraint=eastwest;sketch=1;" vertex="1" parent="o5PamqobD-m2SOwDLmNt-224">
          <mxGeometry y="30" width="180" height="30" as="geometry" />
        </mxCell>
        <mxCell id="o5PamqobD-m2SOwDLmNt-226" value="PK" style="shape=partialRectangle;connectable=0;fillColor=none;top=0;left=0;bottom=0;right=0;fontStyle=1;overflow=hidden;sketch=0;" vertex="1" parent="o5PamqobD-m2SOwDLmNt-225">
          <mxGeometry width="30" height="30" as="geometry" />
        </mxCell>
        <mxCell id="o5PamqobD-m2SOwDLmNt-227" value="skillid" style="shape=partialRectangle;connectable=0;fillColor=none;top=0;left=0;bottom=0;right=0;align=left;spacingLeft=6;fontStyle=5;overflow=hidden;sketch=1;" vertex="1" parent="o5PamqobD-m2SOwDLmNt-225">
          <mxGeometry x="30" width="150" height="30" as="geometry" />
        </mxCell>
        <mxCell id="o5PamqobD-m2SOwDLmNt-228" value="" style="shape=partialRectangle;collapsible=0;dropTarget=0;pointerEvents=0;fillColor=none;top=0;left=0;bottom=0;right=0;points=[[0,0.5],[1,0.5]];portConstraint=eastwest;sketch=1;" vertex="1" parent="o5PamqobD-m2SOwDLmNt-224">
          <mxGeometry y="60" width="180" height="30" as="geometry" />
        </mxCell>
        <mxCell id="o5PamqobD-m2SOwDLmNt-229" value="" style="shape=partialRectangle;connectable=0;fillColor=none;top=0;left=0;bottom=0;right=0;editable=1;overflow=hidden;sketch=0;" vertex="1" parent="o5PamqobD-m2SOwDLmNt-228">
          <mxGeometry width="30" height="30" as="geometry" />
        </mxCell>
        <mxCell id="o5PamqobD-m2SOwDLmNt-230" value="skilldescription" style="shape=partialRectangle;connectable=0;fillColor=none;top=0;left=0;bottom=0;right=0;align=left;spacingLeft=6;overflow=hidden;sketch=1;" vertex="1" parent="o5PamqobD-m2SOwDLmNt-228">
          <mxGeometry x="30" width="150" height="30" as="geometry" />
        </mxCell>
        <mxCell id="o5PamqobD-m2SOwDLmNt-163" value="Employee" style="shape=table;startSize=30;container=1;collapsible=1;childLayout=tableLayout;fixedRows=1;rowLines=0;fontStyle=1;align=center;resizeLast=1;fillColor=#e1d5e7;strokeColor=#9673a6;shadow=0;sketch=0;rounded=0;" vertex="1" parent="1">
          <mxGeometry x="230" y="187" width="180" height="190" as="geometry" />
        </mxCell>
        <mxCell id="o5PamqobD-m2SOwDLmNt-164" value="" style="shape=partialRectangle;collapsible=0;dropTarget=0;pointerEvents=0;fillColor=none;top=0;left=0;bottom=1;right=0;points=[[0,0.5],[1,0.5]];portConstraint=eastwest;sketch=0;" vertex="1" parent="o5PamqobD-m2SOwDLmNt-163">
          <mxGeometry y="30" width="180" height="30" as="geometry" />
        </mxCell>
        <mxCell id="o5PamqobD-m2SOwDLmNt-165" value="PK" style="shape=partialRectangle;connectable=0;fillColor=none;top=0;left=0;bottom=0;right=0;fontStyle=1;overflow=hidden;sketch=0;" vertex="1" parent="o5PamqobD-m2SOwDLmNt-164">
          <mxGeometry width="30" height="30" as="geometry" />
        </mxCell>
        <mxCell id="o5PamqobD-m2SOwDLmNt-166" value="employeeid" style="shape=partialRectangle;connectable=0;fillColor=none;top=0;left=0;bottom=0;right=0;align=left;spacingLeft=6;fontStyle=5;overflow=hidden;sketch=0;" vertex="1" parent="o5PamqobD-m2SOwDLmNt-164">
          <mxGeometry x="30" width="150" height="30" as="geometry" />
        </mxCell>
        <mxCell id="o5PamqobD-m2SOwDLmNt-167" value="" style="shape=partialRectangle;collapsible=0;dropTarget=0;pointerEvents=0;fillColor=none;top=0;left=0;bottom=0;right=0;points=[[0,0.5],[1,0.5]];portConstraint=eastwest;sketch=0;" vertex="1" parent="o5PamqobD-m2SOwDLmNt-163">
          <mxGeometry y="60" width="180" height="30" as="geometry" />
        </mxCell>
        <mxCell id="o5PamqobD-m2SOwDLmNt-168" value="" style="shape=partialRectangle;connectable=0;fillColor=none;top=0;left=0;bottom=0;right=0;editable=1;overflow=hidden;sketch=0;" vertex="1" parent="o5PamqobD-m2SOwDLmNt-167">
          <mxGeometry width="30" height="30" as="geometry" />
        </mxCell>
        <mxCell id="o5PamqobD-m2SOwDLmNt-169" value="name" style="shape=partialRectangle;connectable=0;fillColor=none;top=0;left=0;bottom=0;right=0;align=left;spacingLeft=6;overflow=hidden;sketch=0;" vertex="1" parent="o5PamqobD-m2SOwDLmNt-167">
          <mxGeometry x="30" width="150" height="30" as="geometry" />
        </mxCell>
        <mxCell id="o5PamqobD-m2SOwDLmNt-170" value="" style="shape=partialRectangle;collapsible=0;dropTarget=0;pointerEvents=0;fillColor=none;top=0;left=0;bottom=0;right=0;points=[[0,0.5],[1,0.5]];portConstraint=eastwest;sketch=0;" vertex="1" parent="o5PamqobD-m2SOwDLmNt-163">
          <mxGeometry y="90" width="180" height="30" as="geometry" />
        </mxCell>
        <mxCell id="o5PamqobD-m2SOwDLmNt-171" value="" style="shape=partialRectangle;connectable=0;fillColor=none;top=0;left=0;bottom=0;right=0;editable=1;overflow=hidden;sketch=0;" vertex="1" parent="o5PamqobD-m2SOwDLmNt-170">
          <mxGeometry width="30" height="30" as="geometry" />
        </mxCell>
        <mxCell id="o5PamqobD-m2SOwDLmNt-172" value="surname" style="shape=partialRectangle;connectable=0;fillColor=none;top=0;left=0;bottom=0;right=0;align=left;spacingLeft=6;overflow=hidden;sketch=0;" vertex="1" parent="o5PamqobD-m2SOwDLmNt-170">
          <mxGeometry x="30" width="150" height="30" as="geometry" />
        </mxCell>
        <mxCell id="o5PamqobD-m2SOwDLmNt-173" value="" style="shape=partialRectangle;collapsible=0;dropTarget=0;pointerEvents=0;fillColor=none;top=0;left=0;bottom=0;right=0;points=[[0,0.5],[1,0.5]];portConstraint=eastwest;sketch=0;" vertex="1" parent="o5PamqobD-m2SOwDLmNt-163">
          <mxGeometry y="120" width="180" height="30" as="geometry" />
        </mxCell>
        <mxCell id="o5PamqobD-m2SOwDLmNt-174" value="" style="shape=partialRectangle;connectable=0;fillColor=none;top=0;left=0;bottom=0;right=0;editable=1;overflow=hidden;sketch=0;" vertex="1" parent="o5PamqobD-m2SOwDLmNt-173">
          <mxGeometry width="30" height="30" as="geometry" />
        </mxCell>
        <mxCell id="o5PamqobD-m2SOwDLmNt-175" value="age" style="shape=partialRectangle;connectable=0;fillColor=none;top=0;left=0;bottom=0;right=0;align=left;spacingLeft=6;overflow=hidden;sketch=0;" vertex="1" parent="o5PamqobD-m2SOwDLmNt-173">
          <mxGeometry x="30" width="150" height="30" as="geometry" />
        </mxCell>
        <mxCell id="o5PamqobD-m2SOwDLmNt-176" value="" style="shape=partialRectangle;collapsible=0;dropTarget=0;pointerEvents=0;fillColor=none;top=0;left=0;bottom=0;right=0;points=[[0,0.5],[1,0.5]];portConstraint=eastwest;sketch=0;" vertex="1" parent="o5PamqobD-m2SOwDLmNt-163">
          <mxGeometry y="150" width="180" height="30" as="geometry" />
        </mxCell>
        <mxCell id="o5PamqobD-m2SOwDLmNt-177" value="FK" style="shape=partialRectangle;connectable=0;fillColor=none;top=0;left=0;bottom=0;right=0;editable=1;overflow=hidden;fontStyle=1;sketch=0;" vertex="1" parent="o5PamqobD-m2SOwDLmNt-176">
          <mxGeometry width="30" height="30" as="geometry" />
        </mxCell>
        <mxCell id="o5PamqobD-m2SOwDLmNt-178" value="departmentid" style="shape=partialRectangle;connectable=0;fillColor=none;top=0;left=0;bottom=0;right=0;align=left;spacingLeft=6;overflow=hidden;sketch=0;" vertex="1" parent="o5PamqobD-m2SOwDLmNt-176">
          <mxGeometry x="30" width="150" height="30" as="geometry" />
        </mxCell>
        <mxCell id="o5PamqobD-m2SOwDLmNt-182" value="Department" style="shape=table;startSize=30;container=1;collapsible=1;childLayout=tableLayout;fixedRows=1;rowLines=0;fontStyle=1;align=center;resizeLast=1;fillColor=#e1d5e7;strokeColor=#9673a6;sketch=0;rounded=0;" vertex="1" parent="1">
          <mxGeometry x="230" y="427" width="180" height="130" as="geometry" />
        </mxCell>
        <mxCell id="o5PamqobD-m2SOwDLmNt-183" value="" style="shape=partialRectangle;collapsible=0;dropTarget=0;pointerEvents=0;fillColor=none;top=0;left=0;bottom=1;right=0;points=[[0,0.5],[1,0.5]];portConstraint=eastwest;sketch=0;" vertex="1" parent="o5PamqobD-m2SOwDLmNt-182">
          <mxGeometry y="30" width="180" height="30" as="geometry" />
        </mxCell>
        <mxCell id="o5PamqobD-m2SOwDLmNt-184" value="PK" style="shape=partialRectangle;connectable=0;fillColor=none;top=0;left=0;bottom=0;right=0;fontStyle=1;overflow=hidden;sketch=0;" vertex="1" parent="o5PamqobD-m2SOwDLmNt-183">
          <mxGeometry width="30" height="30" as="geometry" />
        </mxCell>
        <mxCell id="o5PamqobD-m2SOwDLmNt-185" value="departtmentid" style="shape=partialRectangle;connectable=0;fillColor=none;top=0;left=0;bottom=0;right=0;align=left;spacingLeft=6;fontStyle=5;overflow=hidden;sketch=0;" vertex="1" parent="o5PamqobD-m2SOwDLmNt-183">
          <mxGeometry x="30" width="150" height="30" as="geometry" />
        </mxCell>
        <mxCell id="o5PamqobD-m2SOwDLmNt-186" value="" style="shape=partialRectangle;collapsible=0;dropTarget=0;pointerEvents=0;fillColor=none;top=0;left=0;bottom=0;right=0;points=[[0,0.5],[1,0.5]];portConstraint=eastwest;sketch=0;" vertex="1" parent="o5PamqobD-m2SOwDLmNt-182">
          <mxGeometry y="60" width="180" height="30" as="geometry" />
        </mxCell>
        <mxCell id="o5PamqobD-m2SOwDLmNt-187" value="" style="shape=partialRectangle;connectable=0;fillColor=none;top=0;left=0;bottom=0;right=0;editable=1;overflow=hidden;sketch=0;" vertex="1" parent="o5PamqobD-m2SOwDLmNt-186">
          <mxGeometry width="30" height="30" as="geometry" />
        </mxCell>
        <mxCell id="o5PamqobD-m2SOwDLmNt-188" value="name" style="shape=partialRectangle;connectable=0;fillColor=none;top=0;left=0;bottom=0;right=0;align=left;spacingLeft=6;overflow=hidden;sketch=0;" vertex="1" parent="o5PamqobD-m2SOwDLmNt-186">
          <mxGeometry x="30" width="150" height="30" as="geometry" />
        </mxCell>
        <mxCell id="o5PamqobD-m2SOwDLmNt-189" value="" style="shape=partialRectangle;collapsible=0;dropTarget=0;pointerEvents=0;fillColor=none;top=0;left=0;bottom=0;right=0;points=[[0,0.5],[1,0.5]];portConstraint=eastwest;sketch=0;" vertex="1" parent="o5PamqobD-m2SOwDLmNt-182">
          <mxGeometry y="90" width="180" height="30" as="geometry" />
        </mxCell>
        <mxCell id="o5PamqobD-m2SOwDLmNt-190" value="" style="shape=partialRectangle;connectable=0;fillColor=none;top=0;left=0;bottom=0;right=0;editable=1;overflow=hidden;sketch=0;" vertex="1" parent="o5PamqobD-m2SOwDLmNt-189">
          <mxGeometry width="30" height="30" as="geometry" />
        </mxCell>
        <mxCell id="o5PamqobD-m2SOwDLmNt-191" value="phone" style="shape=partialRectangle;connectable=0;fillColor=none;top=0;left=0;bottom=0;right=0;align=left;spacingLeft=6;overflow=hidden;sketch=0;" vertex="1" parent="o5PamqobD-m2SOwDLmNt-189">
          <mxGeometry x="30" width="150" height="30" as="geometry" />
        </mxCell>
      </root>
    </mxGraphModel>
  </diagram>
</mxfile>
